<svg id="Layer_1" data-name="Layer 1" xmlns="http://www.w3.org/2000/svg" viewBox="0 0 387.4 142.13"><defs><style>.cls-1{fill:#0070ba;}.cls-2{fill:#80ba27;}.cls-3{fill:#009fe3;}.cls-4{fill:#707070;}</style></defs><title>CML_logo</title><path class="cls-1" d="M91.27,33.4s-10.48,5.25-18.62,1.18C63.57,30,29,7.92,23,4.09l.2,21.13L57.59,46.61s18.89,13.68,40.52,2.18c17.63-9.37,37.78-21.58,41.54-23.87L139.46,4Z" transform="translate(-1.3 -3.94)"/><path class="cls-1" d="M93.52,16.78A12.73,12.73,0,1,1,80.91,3.94,12.72,12.72,0,0,1,93.52,16.78Z" transform="translate(-1.3 -3.94)"/><path class="cls-2" d="M102.39,89.69s.42-11.73,7.9-16.91c8.34-5.79,44.32-25.52,50.55-28.93l-18.64-10L107,53.79s-21.06,10-21.34,34.51c-.22,20,.83,43.51,1,47.91l18.44,9.85Z" transform="translate(-1.3 -3.94)"/><path class="cls-2" d="M115.9,99.63a12.73,12.73,0,1,1,17.32-4.91A12.74,12.74,0,0,1,115.9,99.63Z" transform="translate(-1.3 -3.94)"/><path class="cls-3" d="M59.75,89.69S59.33,78,51.85,72.78C43.51,67,7.53,47.26,1.3,43.85l18.64-10L55.19,53.79s21.06,10,21.34,34.51c.22,20-.83,43.51-1,47.91l-18.44,9.85Z" transform="translate(-1.3 -3.94)"/><path class="cls-3" d="M46.24,99.63a12.73,12.73,0,1,0-17.32-4.91A12.74,12.74,0,0,0,46.24,99.63Z" transform="translate(-1.3 -3.94)"/><path class="cls-4" d="M208.73,20.2l-4.47,1.87a12.71,12.71,0,0,0-10.18-4.8,12,12,0,0,0-8.48,2.95,10,10,0,0,0-3.17,7.64,10.06,10.06,0,0,0,3.17,7.76c2.11,2,5,2.93,8.56,2.93a12.47,12.47,0,0,0,10.18-4.89l4.18,2.69A17.17,17.17,0,0,1,194,43.84q-7.47,0-12.07-4.48a15.3,15.3,0,0,1-4.61-11.47A15.1,15.1,0,0,1,182.6,16a16.22,16.22,0,0,1,11.15-4Q203,12,208.73,20.2Z" transform="translate(-1.3 -3.94)"/><path class="cls-4" d="M243.21,43.05H216.35V13h25.93v5.29H221.22v6.51h14.65V30H221.22v7.73h22Z" transform="translate(-1.3 -3.94)"/><path class="cls-4" d="M279.4,43.05h-7.26l-17-25.1v25.1h-4.87V13h7.25l17,25.12V13h4.87Z" transform="translate(-1.3 -3.94)"/><path class="cls-4" d="M314.21,18.25H302.28v24.8h-4.87V18.25H285.49V13h28.72Z" transform="translate(-1.3 -3.94)"/><path class="cls-4" d="M349.67,43.05h-5.58l-6.53-11h-12.4v11H320.3V13h20.16a8.13,8.13,0,0,1,6.33,2.6,9.93,9.93,0,0,1,2.35,7q0,7.48-6.2,9.15Zm-9.94-16.34q4.42,0,4.42-4.11,0-4.35-4.7-4.35H325.16v8.46Z" transform="translate(-1.3 -3.94)"/><path class="cls-4" d="M388.7,27.94a15.33,15.33,0,0,1-5.23,12,17.73,17.73,0,0,1-22.36,0,15.23,15.23,0,0,1-5.23-12A15.11,15.11,0,0,1,361.15,16a17.31,17.31,0,0,1,22.28,0A15.21,15.21,0,0,1,388.7,27.94Zm-5.07,0a10.14,10.14,0,0,0-3.17-7.67,12.61,12.61,0,0,0-16.4,0,10.12,10.12,0,0,0-3.19,7.65A10.18,10.18,0,0,0,364,35.68a11.54,11.54,0,0,0,8.29,3,11.42,11.42,0,0,0,8.23-3A10.24,10.24,0,0,0,383.63,27.91Z" transform="translate(-1.3 -3.94)"/><path class="cls-4" d="M212.38,90.12h-4.87l-.12-24.76-12.54,20.5-12.5-20.69-.12.19V90.12h-4.87V60h7.31l10.18,17,10.2-17h7.33Z" transform="translate(-1.3 -3.94)"/><path class="cls-4" d="M248.57,90.12H221.71V60h25.93v5.29H226.58v6.5h14.64v5.29H226.58v7.72h22Z" transform="translate(-1.3 -3.94)"/><path class="cls-4" d="M271.81,60a13.92,13.92,0,0,1,10.55,4.16,14.8,14.8,0,0,1,4,10.66,18.39,18.39,0,0,1-4.18,11.35,9.17,9.17,0,0,1-3.73,2.7,14.44,14.44,0,0,1-5.8,1.22h-17V60ZM273,84.83a7.34,7.34,0,0,0,5.86-2.7,10.27,10.27,0,0,0,2.29-6.89,10.43,10.43,0,0,0-2.43-7.2,8.26,8.26,0,0,0-6.49-2.72H260.53V84.83Z" transform="translate(-1.3 -3.94)"/><path class="cls-4" d="M298.67,90.12H293.8V60h4.87Z" transform="translate(-1.3 -3.94)"/><path class="cls-4" d="M337.86,67.27l-4.46,1.86a12.7,12.7,0,0,0-10.18-4.79,11.91,11.91,0,0,0-8.48,3,10,10,0,0,0-3.16,7.64,10.06,10.06,0,0,0,3.16,7.76,12.11,12.11,0,0,0,8.56,2.93,12.46,12.46,0,0,0,10.18-4.9l4.18,2.69a17.14,17.14,0,0,1-14.48,7.49q-7.47,0-12.07-4.48A15.29,15.29,0,0,1,306.5,75a15.1,15.1,0,0,1,5.24-11.89,16.26,16.26,0,0,1,11.15-4Q332.19,59.05,337.86,67.27Z" transform="translate(-1.3 -3.94)"/><path class="cls-4" d="M376.82,75a15.36,15.36,0,0,1-5.24,12,17.75,17.75,0,0,1-22.35,0A15.27,15.27,0,0,1,344,75a15.1,15.1,0,0,1,5.28-11.94,17.3,17.3,0,0,1,22.27,0A15.19,15.19,0,0,1,376.82,75Zm-5.08,0a10.11,10.11,0,0,0-3.17-7.68,11.35,11.35,0,0,0-8.17-3,11.47,11.47,0,0,0-8.23,3A10.13,10.13,0,0,0,349,75a10.24,10.24,0,0,0,3.13,7.77,11.55,11.55,0,0,0,8.29,3,11.4,11.4,0,0,0,8.23-3A10.23,10.23,0,0,0,371.74,75Z" transform="translate(-1.3 -3.94)"/><path class="cls-4" d="M201.5,137.18H177.36V107.09h4.87V131.9H201.5Z" transform="translate(-1.3 -3.94)"/><path class="cls-4" d="M237.08,137.18h-5.36l-2.87-6.45H212.08l-2.87,6.45h-5.36l13.6-30.09h6Zm-10.66-11.74-5.93-13.33-6,13.33Z" transform="translate(-1.3 -3.94)"/><path class="cls-4" d="M268.16,112.38H256.23v24.8h-4.87v-24.8H239.44v-5.29h28.72Z" transform="translate(-1.3 -3.94)"/><path class="cls-4" d="M279.11,137.18h-4.86V107.09h4.86Z" transform="translate(-1.3 -3.94)"/><path class="cls-4" d="M317.54,137.18h-7.26l-17-25.1v25.1h-4.87V107.09h7.26l17,25.11V107.09h4.87Z" transform="translate(-1.3 -3.94)"/><path class="cls-4" d="M358.19,122.06a15.36,15.36,0,0,1-5.24,12,16.17,16.17,0,0,1-11.15,4,16.35,16.35,0,0,1-11.2-4,15.25,15.25,0,0,1-5.23-12,15.09,15.09,0,0,1,5.27-11.93,17.28,17.28,0,0,1,22.28,0A15.18,15.18,0,0,1,358.19,122.06Zm-5.07,0a10.11,10.11,0,0,0-3.17-7.67,12.61,12.61,0,0,0-16.4,0,10.1,10.1,0,0,0-3.19,7.65,10.21,10.21,0,0,0,3.13,7.77,13,13,0,0,0,16.52,0A10.27,10.27,0,0,0,353.12,122Z" transform="translate(-1.3 -3.94)"/></svg>